<svg width="118" height="27" viewBox="0 0 118 27" fill="none" xmlns="http://www.w3.org/2000/svg">
<g clip-path="url(#clip0_1_16)">
<path d="M48.4256 0.590726L53.061 7.87633H53.0921L53.0179 0.545281L55.2687 0.521362L55.3811 11.4498L52.9773 11.4737L48.3562 4.20483H48.3251L48.3993 11.5215L46.1485 11.5454L46.0361 0.617037L48.4256 0.590726Z" fill="#1B1B1B"/>
<path d="M65.403 0.418549L65.4245 2.43967L59.653 2.49947L59.6769 4.8411L64.9725 4.78848L64.9916 6.65652L59.696 6.70914L59.7223 9.38802L65.6159 9.32823L65.6374 11.3493L57.34 11.4331L57.2276 0.502264L65.403 0.418549Z" fill="#1B1B1B"/>
<path d="M69.3974 0.377869L69.4883 9.28755L74.815 9.23253L74.8365 11.2537L67.106 11.3326L66.9936 0.404179L69.3974 0.377869Z" fill="#1B1B1B"/>
<path d="M75.8435 3.54948C76.0803 2.84866 76.4271 2.23395 76.8815 1.71014C77.336 1.18393 77.8957 0.770135 78.5606 0.46876C79.2256 0.164994 79.9766 0.00952334 80.8137 0.00234776C81.6605 -0.00721968 82.4163 0.1339 83.0836 0.423315C83.7509 0.71273 84.3154 1.11456 84.7795 1.6312C85.2435 2.14785 85.6023 2.75299 85.8534 3.44902C86.1045 4.14505 86.2361 4.90088 86.2433 5.71889C86.2504 6.51538 86.1356 7.25925 85.8988 7.9505C85.662 8.64174 85.3152 9.24449 84.8608 9.75874C84.4063 10.273 83.849 10.6796 83.1889 10.9786C82.5287 11.2752 81.7753 11.4283 80.9286 11.4378C80.0914 11.4474 79.338 11.3087 78.6659 11.024C77.9937 10.7394 77.4269 10.3447 76.9629 9.84007C76.4988 9.33538 76.1401 8.73742 75.8889 8.05335C75.6378 7.36927 75.5062 6.62541 75.499 5.82892C75.4919 5.00851 75.6067 4.25029 75.8435 3.54948ZM78.0775 7.13966C78.1899 7.57258 78.3645 7.96006 78.6013 8.30688C78.8405 8.65131 79.149 8.92638 79.5293 9.13208C79.9096 9.33778 80.3689 9.43823 80.9094 9.43106C81.45 9.42627 81.9092 9.31625 82.2847 9.10337C82.6603 8.8905 82.964 8.60826 83.1937 8.25905C83.4257 7.90983 83.5907 7.51757 83.6935 7.08225C83.7964 6.64693 83.8442 6.19966 83.8418 5.74042C83.8371 5.25965 83.7797 4.79803 83.6672 4.34836C83.5548 3.90108 83.3802 3.50164 83.1434 3.15243C82.9042 2.80322 82.5957 2.52576 82.2154 2.32006C81.8351 2.11436 81.3758 2.0139 80.8353 2.02108C80.2947 2.02586 79.8355 2.13589 79.46 2.34876C79.0844 2.56164 78.7807 2.84627 78.5511 3.20026C78.319 3.55426 78.154 3.95609 78.0512 4.40576C77.9483 4.85543 77.9005 5.32184 77.9052 5.80022C77.9076 6.25945 77.965 6.70673 78.0775 7.13966Z" fill="#1B1B1B"/>
<path d="M48.5786 15.5566L53.2141 22.8422H53.2452L53.171 15.5112L55.4218 15.4873L55.5342 26.4181L53.1304 26.442L48.5093 19.1731H48.4782L48.5523 26.4898L46.3016 26.5137L46.1892 15.5829L48.5786 15.5566Z" fill="#1B1B1B"/>
<path d="M65.513 26.3152L63.5852 18.8956H63.5541L61.808 26.3535L59.3731 26.3774L56.3689 15.4777L58.7728 15.4538L60.5786 22.8757H60.6097L62.4323 15.4155L64.683 15.3916L66.6276 22.9044H66.6587L68.3737 15.3557L70.7321 15.3318L67.9049 26.2913L65.513 26.3152Z" fill="#1B1B1B"/>
<path d="M71.6027 18.5608C71.8395 17.86 72.1863 17.2453 72.6408 16.7215C73.0952 16.1952 73.6549 15.7815 74.3198 15.4801C74.9848 15.1763 75.7358 15.0208 76.573 15.0137C77.4197 15.0041 78.1755 15.1452 78.8429 15.4346C79.5102 15.7241 80.0747 16.1259 80.5387 16.6425C81.0027 17.1592 81.3615 17.7643 81.6126 18.4603C81.8638 19.1564 81.9953 19.9122 82.0025 20.7302C82.0097 21.5267 81.8949 22.2706 81.6581 22.9618C81.4213 23.6531 81.0745 24.2558 80.62 24.7701C80.1655 25.2843 79.6082 25.6909 78.9481 25.9899C78.2879 26.2889 77.5345 26.4396 76.6878 26.4492C75.8506 26.4587 75.0972 26.32 74.4251 26.0354C73.753 25.7507 73.1861 25.3561 72.7221 24.8514C72.2581 24.3467 71.8993 23.7511 71.6481 23.0647C71.397 22.3782 71.2654 21.6367 71.2583 20.8402C71.2511 20.0198 71.3659 19.2616 71.6027 18.5608ZM73.8367 22.151C73.9491 22.5839 74.1237 22.9714 74.3605 23.3182C74.5997 23.6626 74.9082 23.9377 75.2885 24.1434C75.6688 24.3491 76.1281 24.4496 76.6687 24.4424C77.2092 24.4376 77.6684 24.3276 78.044 24.1147C78.4195 23.9018 78.7233 23.622 78.9529 23.2704C79.1849 22.9212 79.3499 22.5289 79.4528 22.0936C79.5556 21.6583 79.6035 21.211 79.5987 20.7517C79.5939 20.271 79.5365 19.8093 79.4241 19.3597C79.3117 18.9124 79.137 18.513 78.9003 18.1637C78.6611 17.8145 78.3525 17.5371 77.9722 17.3314C77.5919 17.1257 77.1327 17.0252 76.5921 17.0324C76.0515 17.0372 75.5923 17.1472 75.2168 17.3601C74.8413 17.573 74.5375 17.8576 74.3079 18.2116C74.0759 18.5656 73.9108 18.9674 73.808 19.4171C73.7051 19.8668 73.6573 20.3332 73.6621 20.8115C73.6669 21.2732 73.7243 21.7181 73.8367 22.151Z" fill="#1B1B1B"/>
<path d="M85.8366 15.1763L85.8821 19.7065L90.1061 15.1309L93.1055 15.0998L88.8815 19.4625L93.6341 26.0282L90.618 26.0593L87.2766 21.1799L85.9132 22.5863L85.9491 26.1071L83.5452 26.131L83.4328 15.2026L85.8366 15.1763Z" fill="#1B1B1B"/>
<path d="M96.734 15.0663L96.8464 25.9971L94.4426 26.021L94.3301 15.0926L96.734 15.0663Z" fill="#1B1B1B"/>
<path d="M101.097 15.0208L101.142 19.551L105.366 14.9754L108.366 14.9443L104.142 19.307L108.894 25.8727L105.878 25.9038L102.537 21.0244L101.173 22.4308L101.209 25.9516L98.8053 25.9755L98.6929 15.0471L101.097 15.0208Z" fill="#1B1B1B"/>
<path d="M117.766 14.851L117.787 16.8721L112.016 16.9319L112.039 19.2736L117.335 19.2186L117.354 21.0866L112.059 21.1392L112.085 23.8181L117.978 23.7583L118 25.7794L109.703 25.8631L109.59 14.9347L117.766 14.851Z" fill="#1B1B1B"/>
<path d="M22.5337 26.1334H16.9655L16.9224 26.076L0 3.72169V0.46637H4.79568L5.56825 1.50444L22.5289 24.0023L22.5337 26.1334Z" fill="#479A5B"/>
<path d="M5.56825 15.5829V26.1334H0V8.87613L5.56825 15.5829Z" fill="#479A5B"/>
<path d="M33.8879 12.2965V0.46637H39.4585V19.0033L33.8879 12.2965Z" fill="#479A5B"/>
<path d="M39.4585 23.9664V26.1334H33.8879L22.5337 10.8853L22.4931 10.8279V19.4912L16.9224 12.5764V0.46637H21.7181L22.4931 1.50444L22.5337 1.56184L33.8879 16.8099L39.4585 23.9664Z" fill="#479A5B"/>
</g>
<defs>
<clipPath id="clip0_1_16">
<rect width="118" height="26.5114" fill="white"/>
</clipPath>
</defs>
</svg>
