<svg width="39" height="39" viewBox="0 0 39 39" fill="none" xmlns="http://www.w3.org/2000/svg">
<g clip-path="url(#clip0_96_191)">
<path d="M0 30.4735C6.29276 24.1917 12.6476 17.8478 19.2876 11.2225C14.1386 11.2225 9.37702 11.2225 4.52406 11.2225C4.52406 7.40002 4.52406 3.74934 4.52406 0C15.7904 0 27.0567 0 38.3778 0C38.3778 11.2809 38.3778 22.4778 38.3778 33.7916C34.7162 33.7916 31.0691 33.7916 27.2759 33.7916C27.2759 29.0446 27.2759 24.2721 27.2759 19.2583C20.753 25.8398 14.42 32.2312 8.13454 38.5751C5.24397 35.6992 2.65305 33.1156 0 30.4735Z" fill="#479A5B"/>
</g>
<defs>
<clipPath id="clip0_96_191">
<rect width="38.3778" height="38.5751" fill="white"/>
</clipPath>
</defs>
</svg>
