<svg width="44" height="44" viewBox="0 0 44 44" fill="none" xmlns="http://www.w3.org/2000/svg">
<g clip-path="url(#clip0_96_216)">
<path d="M20.1405 20.1417C23.2434 17.0388 21.6011 10.3657 16.4723 5.23687C11.3435 0.10807 4.6704 -1.53423 1.56749 1.56868C-1.53543 4.6716 0.106872 11.3447 5.23567 16.4735C10.3645 21.6023 17.0376 23.2446 20.1405 20.1417Z" fill="#0D9C54"/>
<path d="M38.0456 16.4741C43.1744 11.3453 44.8167 4.67214 41.7138 1.56922C38.6108 -1.53369 31.9377 0.10861 26.8089 5.23741C21.6801 10.3662 20.0378 17.0393 23.1407 20.1423C26.2436 23.2452 32.9168 21.6029 38.0456 16.4741Z" fill="#0D9C54"/>
<path d="M41.7153 41.4769C44.8182 38.374 43.1759 31.7009 38.0471 26.5721C32.9183 21.4433 26.2452 19.801 23.1423 22.9039C20.0393 26.0068 21.6816 32.6799 26.8104 37.8087C31.9392 42.9375 38.6124 44.5798 41.7153 41.4769Z" fill="#0D9C54"/>
<path d="M16.4738 37.8078C21.6026 32.679 23.2449 26.0059 20.142 22.903C17.0391 19.8 10.3659 21.4423 5.23714 26.5712C0.108337 31.7 -1.53397 38.3731 1.56895 41.476C4.67187 44.5789 11.345 42.9366 16.4738 37.8078Z" fill="#0D9C54"/>
<path d="M32.718 28.6845C33.9328 28.6845 33.9328 26.7981 32.718 26.7981C31.5031 26.7981 31.4993 28.6845 32.718 28.6845Z" fill="#0D9C54"/>
</g>
<defs>
<clipPath id="clip0_96_216">
<rect width="43.2858" height="43.0443" fill="white"/>
</clipPath>
</defs>
</svg>
