<svg width="65" height="62" viewBox="0 0 65 62" fill="none" xmlns="http://www.w3.org/2000/svg">
<g clip-path="url(#clip0_150_167)">
<path d="M38.7215 0.54126C39.0593 5.48788 38.1454 10.0805 36.6184 14.5413C35.0335 19.1755 32.7384 23.4442 29.2286 26.9471C24.1524 32.0118 19.134 30.8225 14.9926 25.3669C13.6113 23.5484 12.0959 22.0722 9.78913 21.6396C6.94563 21.1074 4.2826 22.4794 2.89902 25.1587C1.97587 26.9448 1.36738 27.7453 0.432663 28.3631C-0.141129 28.7425 -0.150383 29.5917 0.439598 29.948C0.448853 29.9526 0.458107 29.9595 0.467361 29.9642C3.08643 30.2001 5.71245 32.8447 6.73046 36.0329C7.31351 37.8584 7.97753 39.6885 8.86366 41.3821C11.3925 46.22 15.6265 48.8437 20.7999 50.0861C22.8567 50.5812 24.9413 50.9931 27.0329 51.3193C30.4849 51.8561 33.3793 53.5774 36.276 55.3636C38.7331 56.879 41.1648 58.4986 43.7861 59.667C51.8701 63.2717 57.3165 61.3328 61.6777 54.5214C62.7698 52.8139 63.5495 50.9028 64.4588 49.0774C64.5721 48.8506 64.5929 48.5753 64.6647 48.293C55.4378 47.9367 46.116 48.492 37.5554 43.742C39.9871 43.0364 42.2221 42.5921 44.2813 41.7245C46.0628 40.9749 47.7055 39.8296 49.2904 38.6959C50.2413 38.0134 51.1621 37.0741 50.6439 35.665C50.1256 34.2583 48.9618 33.8627 47.333 33.9321C48.1104 33.349 48.7281 32.9303 49.295 32.4513C50.8197 31.1603 52.2033 29.7444 52.3675 27.6135C52.5665 25.0314 51.1089 23.7797 48.5777 24.2795C48.395 24.3165 48.2168 24.3697 47.8351 24.4692C48.4436 23.5622 49.0312 22.8612 49.4222 22.0607C49.9405 20.9987 50.4333 19.8905 50.6948 18.7475C50.9678 17.556 50.5397 16.45 49.5125 15.6842C48.5268 14.9508 47.4672 15.0896 46.4492 15.587C45.6625 15.9688 44.9245 16.4523 44.0476 16.959C44.6098 13.8772 44.7671 10.8648 43.962 7.88484C43.1383 4.85625 41.5303 2.376 38.7215 0.54126ZM7.19782 24.3998C7.96133 24.4831 8.45877 24.9458 8.45183 25.8065C8.44489 26.6834 7.90812 27.1484 7.06131 27.1577C6.17055 27.1669 5.70088 26.5746 5.71013 25.7649C5.7217 24.9528 6.21452 24.4229 7.19782 24.3998Z" fill="#E3A000"/>
<path d="M30.1193 11.603C27.8727 5.77723 24.6637 1.13138 17.8962 0C18.0026 0.316972 18.0142 0.471988 18.0929 0.566848C21.3875 4.46538 22.5027 9.04412 22.2482 14.0254C22.0539 17.8175 21.3621 21.524 19.9692 25.0686C19.6731 25.8251 19.8582 26.1699 20.4829 26.5424C22.1279 27.5234 23.7984 27.4632 25.2583 26.355C26.5933 25.3439 27.8935 24.1848 28.9046 22.859C32.0049 18.7893 34.0618 14.2059 35.0428 9.16443C35.2556 8.06313 34.9109 7.5842 33.8119 7.86184C33.0137 8.06544 32.2085 8.59527 31.6232 9.18988C31.0193 9.80532 30.6792 10.6753 30.1193 11.603Z" fill="#E3A000"/>
</g>
<defs>
<clipPath id="clip0_150_167">
<rect width="64.6624" height="61.451" fill="white" transform="matrix(-1 0 0 1 64.6624 0)"/>
</clipPath>
</defs>
</svg>
