<svg width="69" height="42" viewBox="0 0 69 42" fill="none" xmlns="http://www.w3.org/2000/svg">
<g clip-path="url(#clip0_148_128)">
<path d="M51.5303 29.8556C52.6128 33.3218 50.5936 35.2416 46.7588 34.5031C46.9603 35.8537 46.6724 37.0186 45.5803 37.8142C44.5381 38.5732 43.4038 38.3732 42.2656 38.0754C42.4192 40.6255 41.0161 41.9108 38.6938 41.4232C37.4078 41.1519 35.5748 40.1114 34.2275 38.9057C34.5307 38.0284 34.8877 37.192 35.1027 36.3147C35.2965 35.5293 35.214 34.7173 34.4635 34.2419C33.7534 33.7931 33.049 33.9686 32.3964 34.4419C32.1085 34.65 31.8283 34.8703 31.4655 35.1457C31.7592 34.1195 32.0644 33.2035 32.2774 32.265C32.621 30.7513 32.3062 29.5965 31.5058 29.1518C30.6172 28.6601 29.4925 28.9886 28.4886 30.0474C28.2219 30.331 27.98 30.6411 27.6019 31.0858C27.7631 29.5211 28.1201 27.9583 26.529 27.2626C25.0914 26.6363 24.0396 27.5829 22.9859 28.7825C23.0588 28.3765 23.1049 28.1664 23.1337 27.9542C23.2623 27.0321 23.1759 26.1548 22.3948 25.5795C21.604 25.0001 20.6693 24.8226 19.8651 25.3979C18.9803 26.0304 18.2317 26.875 17.3987 27.6482C16.1991 26.6322 14.8729 25.5713 13.6138 24.4268C12.3278 23.2599 10.921 22.4112 9.17438 22.2418C9.29721 19.4774 9.89221 16.9538 10.8039 14.5138C11.9248 11.5127 13.5082 8.82178 15.6233 6.48786C16.0015 6.06963 16.3239 5.95946 16.8652 6.14512C17.677 6.42666 18.5446 6.52254 19.3699 6.76736C20.2144 7.0183 21.0359 7.35492 22.1049 7.74051C21.3295 8.52392 20.7921 9.13188 20.1894 9.6562C19.1165 10.5906 18.8171 11.8004 19.1722 13.1346C19.5215 14.4465 20.6251 14.9177 21.7575 15.0911C23.2853 15.3258 24.7536 15.1136 25.9628 13.916C26.3121 13.5692 26.7651 13.3387 27.0971 12.9775C30.0452 9.76433 33.9703 10.5926 36.6074 12.4104C41.0833 15.4971 45.4863 18.7083 49.8816 21.9256C51.5111 23.1191 53.0792 24.4187 54.5935 25.7754C55.8372 26.8893 55.747 28.7744 54.5167 29.8658C53.5859 30.7003 52.6147 30.4208 51.5303 29.8556Z" fill="#0D9C54"/>
<path d="M59.1692 20.9846C57.0599 21.1294 55.3997 21.9761 54.0005 23.5899C52.2769 22.3617 50.5841 21.1641 48.8989 19.9564C44.899 17.092 40.9298 14.1787 36.8954 11.3714C34.2908 9.55776 29.9685 8.92328 26.9801 11.7468C25.7498 12.9077 24.4888 14.1052 22.6673 14.1583C21.4581 14.193 20.4505 13.6993 20.1127 12.7771C19.8152 11.9692 19.915 11.2429 20.5426 10.6472C22.5215 8.77027 24.4715 6.85458 26.5098 5.05313C27.0242 4.59818 27.8188 4.34928 28.5059 4.29012C30.9205 4.07795 33.3446 3.90453 35.7649 3.89433C36.8493 3.89025 37.9913 4.15751 39.0105 4.56962C41.3636 5.52441 43.6687 6.61384 45.9719 7.70124C48.5668 8.92736 51.0255 9.28847 53.1483 6.55468C57.4725 10.3351 58.985 15.2885 59.1692 20.9846Z" fill="#0D9C54"/>
<path d="M14.464 4.02104C8.66949 11.9939 7.72326 14.5012 6.95744 23.9247C6.4469 23.6696 5.96323 23.4473 5.49491 23.1902C3.85004 22.2844 2.19749 21.3908 0.579495 20.4319C0.297352 20.2646 -0.0270151 19.7811 -0.000144462 19.4771C0.527673 13.4791 1.76564 7.71981 5.35288 2.84592C6.09374 1.84013 7.04573 1.00367 7.95742 0.15905C8.15703 -0.0245624 8.69444 -0.0572047 8.92092 0.0978461C10.775 1.36069 12.5907 2.68474 14.464 4.02104Z" fill="#0D9C54"/>
<path d="M53.9583 4.14765C55.7567 2.83176 57.5512 1.48118 59.3976 0.218338C59.6299 0.0592068 60.2422 0.234659 60.5109 0.471315C63.4935 3.07861 65.5894 6.35916 66.908 10.2109C67.9022 13.1202 68.2938 16.1294 68.3168 19.212C68.3226 19.8506 68.1728 20.2321 67.5587 20.5239C65.4666 21.5174 63.4129 22.6028 61.2844 23.6861C60.9408 16.2334 60.2479 9.0195 53.9583 4.14765Z" fill="#0D9C54"/>
<path d="M31.6057 31.3711C31.1527 34.1416 30.2948 36.4837 28.3966 38.2362C27.5041 39.0584 26.3371 38.6463 26.1202 37.4201C26.0032 36.7571 26.0838 35.992 26.2776 35.3412C26.8611 33.3725 27.7459 31.5608 29.4388 30.4082C29.8322 30.1409 30.5174 30.0226 30.9205 30.2041C31.2756 30.3653 31.4272 31.0406 31.6057 31.3711Z" fill="#0D9C54"/>
<path d="M26.9167 29.6066C26.5981 32.0058 25.9148 33.8317 24.508 35.2843C23.9686 35.8412 23.3141 36.0391 22.5733 35.6862C21.8439 35.3394 21.6136 34.6478 21.6865 33.9276C21.8996 31.8018 22.675 29.9105 24.2546 28.5457C24.6634 28.1928 25.5214 28.0214 25.9743 28.2376C26.4542 28.4682 26.696 29.2577 26.9167 29.6066Z" fill="#0D9C54"/>
<path d="M22.4236 27.948C22.1357 29.4454 21.6348 30.6001 20.6866 31.4856C20.0244 32.1017 19.2241 32.3649 18.3968 31.8426C17.6176 31.3489 17.5811 30.5491 17.7231 29.6902C17.9381 28.3845 18.5101 27.2747 19.5887 26.6423C20.1012 26.3403 20.9131 26.2138 21.4255 26.4362C21.8747 26.63 22.0992 27.4196 22.4236 27.948Z" fill="#0D9C54"/>
<path d="M30.3889 39.5562C30.6153 37.5385 31.3504 36.1308 32.6402 35.1332C32.9991 34.8557 33.7112 34.8231 34.1277 35.0128C34.3715 35.125 34.5596 35.9941 34.4099 36.3511C33.859 37.665 33.2256 38.9564 32.4713 40.1478C32.2564 40.4885 31.481 40.6681 31.0568 40.5477C30.719 40.4538 30.529 39.7847 30.3889 39.5562Z" fill="#0D9C54"/>
</g>
<defs>
<clipPath id="clip0_148_128">
<rect width="68.3187" height="41.5271" fill="white"/>
</clipPath>
</defs>
</svg>
