<svg width="40" height="40" viewBox="0 0 40 40" fill="none" xmlns="http://www.w3.org/2000/svg">
<g clip-path="url(#clip0_96_209)">
<path d="M19.8393 0C8.88206 0 0 8.88206 0 19.8393C0 30.7965 8.88206 39.6786 19.8393 39.6786C30.7965 39.6786 39.6786 30.7965 39.6786 19.8393C39.6786 8.88206 30.7965 0 19.8393 0ZM19.8393 34.5765C11.7012 34.5765 5.10214 27.9774 5.10214 19.8393C5.10214 11.7012 11.7012 5.10214 19.8393 5.10214C27.9774 5.10214 34.5765 11.7012 34.5765 19.8393C34.5765 27.9774 27.9774 34.5765 19.8393 34.5765Z" fill="#FF6B00"/>
<path d="M28.7334 19.8391C28.7334 24.7515 24.7517 28.7332 19.8393 28.7332C14.9269 28.7332 10.9452 24.7515 10.9452 19.8391C10.9452 14.9267 14.9269 10.948 19.8393 10.948C24.7517 10.948 28.7334 14.9267 28.7334 19.8391Z" fill="#FF6B00"/>
</g>
<defs>
<clipPath id="clip0_96_209">
<rect width="39.6786" height="39.6786" fill="white"/>
</clipPath>
</defs>
</svg>
